<svg id="レイヤー_1" xmlns="http://www.w3.org/2000/svg" viewBox="0 0 256 256"><style>.st0{fill:#fff}</style><title>アートボード 2</title><path class="st0" d="M187.6 255.7c-8.3 1.6-11.2-3.5-11.2-7.8 0-5.3.2-22.9.2-44.6 0-15.2-5.2-25.1-11.1-30.1 36.3-4 74.4-17.8 74.4-80.2 0-17.7-6.3-32.2-16.8-43.6 1.7-4.1 7.3-20.6-1.6-43 0 0-13.7-4.3-44.8 16.7-26.7-7.3-54.9-7.3-81.6 0C64 2 50.3 6.4 50.3 6.4c-8.9 22.4-3.3 38.9-1.6 43C37.8 61.2 31.8 76.8 32 93c0 62.3 38.1 76.2 74.3 80.3-4.7 4.1-8.9 11.2-10.3 21.7-9.3 4.1-32.9 11.3-47.5-13.5 0 0-8.6-15.6-25-16.8 0 0-15.9-.2-1.1 9.9 0 0 10.7 5 18.1 23.8 0 0 9.6 31.6 54.9 21.8.1 13.6.2 23.8.2 27.6 0 4.3-3 9.3-11.1 7.8"/></svg>